<?xml version="1.0" encoding="utf-8"?>
<!-- Generator: Adobe Illustrator 24.3.0, SVG Export Plug-In . SVG Version: 6.00 Build 0)  -->
<svg version="1.1" id="Capa_1" xmlns="http://www.w3.org/2000/svg" xmlns:xlink="http://www.w3.org/1999/xlink" x="0px" y="0px"
	 viewBox="0 0 127.56 127.56" style="enable-background:new 0 0 127.56 127.56;" xml:space="preserve">
<style type="text/css">
	.md0{fill:#FFFFFF;}
	.md1{fill:#ED6910;}
	.md2{fill:#F5A04F;}
	.md3{fill:#3472B8;}
	.md4{fill:#579AD3;}
</style>
<g>
	<circle class="md0" cx="63.78" cy="63.78" r="61.12"/>
	<g>
		<g>
			<path class="md1" d="M68.34,36.7c-0.85-1.8-3.22-3.3-5.21-3.3c-1.47,0-2.77,0.5-3.78,1.32c-0.57,0.47-1.44,0.16-1.6-0.57
				l-1.75-8.11c-0.25-1.18-1.42-1.94-2.6-1.68l-28.25,6.08c-1.16,0.25-1.89,1.39-1.64,2.54l6.07,28.22c0.17,0.81,0.77,1.42,1.5,1.65
				l-0.37,0.11h1.1l0.01,0c0.13,0,0.27-0.02,0.41-0.05l0.62-0.13l0,0l0,0l7.25-1.56c1.02-0.22,1.43-1.45,0.75-2.23
				c-0.66-0.76-1.14-1.7-1.34-2.76c-0.57-3,1.28-5.97,4.23-6.76c3.28-0.89,6.58,1.16,7.29,4.43c0.27,1.23,0.12,2.46-0.34,3.53
				c-0.18,0.42-0.03,0.85,0.28,1.1l-0.42,0.21l0.98,0v0c0.07,0,0.15,0,0.23-0.02l8.66-1.86c1.18-0.25,1.94-1.42,1.68-2.6l-1.74-8.06
				c-0.16-0.75,0.52-1.4,1.26-1.21c0.85,0.22,1.77,0.25,2.69,0.05C67.92,44.24,70.04,40.28,68.34,36.7z"/>
			<path class="md2" d="M62.13,33.4c-1.47,0-2.77,0.5-3.78,1.32c-0.57,0.47-1.44,0.16-1.6-0.57l-1.75-8.11
				c-0.25-1.18-1.42-1.94-2.6-1.68l-28.25,6.08c-1.16,0.25-1.89,1.39-1.64,2.54l6.07,28.22c0.26,1.2,1.44,1.96,2.64,1.71l7.87-1.69
				c1.02-0.22,1.43-1.45,0.75-2.23c-0.66-0.76-1.14-1.7-1.34-2.76c-0.57-3,1.28-5.97,4.23-6.76c3.28-0.89,6.58,1.16,7.29,4.43
				c0.27,1.23,0.12,2.46-0.34,3.53c-0.3,0.7,0.31,1.45,1.06,1.29l8.66-1.86c1.18-0.25,1.94-1.42,1.68-2.6l-1.74-8.06
				c-0.16-0.75,0.52-1.4,1.26-1.21c0.85,0.22,1.77,0.25,2.69,0.05c3.62-0.78,5.74-4.74,4.05-8.33C66.49,34.89,64.13,33.4,62.13,33.4
				z"/>
		</g>
		<g id="man_1_">
			<path class="md3" d="M102.99,29.12L74.4,24.58c-1.22-0.19-2.36,0.64-2.55,1.85l-1.27,7.97c-0.06,0.37,0.03,1.41,0.03,1.41
				l1.03,0.15c0.06,0.01,0.12,0.02,0.18,0.03l0,0l0,0c0.19,0.01,0.38-0.01,0.58-0.08c0.95-0.34,2-0.45,3.07-0.25
				c3.01,0.55,5.11,3.36,4.79,6.4c-0.36,3.38-3.47,5.74-6.78,5.21c-1.25-0.2-2.34-0.77-3.18-1.59c-0.16-0.16-0.36-0.24-0.56-0.26
				l0,0l-1.08-0.16l-1.34,9.72c-0.19,1.2,0.63,2.32,1.83,2.52l8.17,1.3c0.76,0.12,1.12,0.99,0.68,1.62
				c-0.51,0.72-0.87,1.57-1.02,2.5c-0.58,3.67,2.36,7.09,6.32,6.8c1.99-0.14,4.25-1.82,4.97-3.68c0.53-1.38,0.53-2.77,0.13-4.01
				c-0.23-0.71,0.37-1.41,1.11-1.29l8.22,1.3c1.2,0.19,2.32-0.63,2.51-1.82l4.54-28.62C104.96,30.41,104.16,29.31,102.99,29.12z"/>
			<path class="md4" d="M87.2,65.85c0.53-1.38,0.53-2.77,0.13-4.01c-0.23-0.71,0.37-1.41,1.11-1.29l8.22,1.31
				c1.2,0.19,2.32-0.63,2.51-1.82l4.54-28.62c0.19-1.17-0.61-2.27-1.78-2.46l-28.59-4.54c-1.22-0.19-2.36,0.64-2.55,1.85l-1.27,7.97
				c-0.16,1.03,0.84,1.86,1.82,1.51c0.95-0.34,2-0.45,3.07-0.25c3.01,0.55,5.11,3.36,4.79,6.4c-0.36,3.38-3.47,5.74-6.78,5.21
				c-1.25-0.2-2.34-0.77-3.18-1.59c-0.55-0.53-1.47-0.23-1.59,0.52l-1.39,8.77c-0.19,1.2,0.63,2.32,1.83,2.52l8.17,1.3
				c0.76,0.12,1.12,0.99,0.68,1.62c-0.51,0.72-0.87,1.57-1.02,2.5c-0.58,3.67,2.36,7.09,6.32,6.8
				C84.22,69.39,86.48,67.72,87.2,65.85z"/>
		</g>
		<g>
			<path class="md3" d="M64.07,100.57l-0.03-8.05c0-0.78-0.63-1.35-1.33-1.37l0,0l0,0c-0.04,0-0.07,0-0.11,0l-0.89,0.02
				c0,0-1.67,0.91-2.67,0.89c-3.05-0.06-5.24-2.38-5.41-5.43c-0.19-3.39,2.16-6.31,5.51-6.32c1.15,0,3.01,1.25,3.01,1.25l0.91-0.02
				c0.49,0,0.95-0.38,0.95-0.94l-0.03-8.86c0-1.21-0.99-2.19-2.2-2.18l-8.25,0.03c-0.76,0-1.26-0.8-0.92-1.48
				c0.39-0.79,0.61-1.68,0.61-2.62c-0.01-3.71-3.45-6.6-7.31-5.68c-1.94,0.46-3.89,2.47-4.3,4.42c-0.31,1.44-0.08,2.82,0.51,3.97
				c0.34,0.66-0.14,1.44-0.88,1.45l-8.3,0.03c-1.21,0-2.19,0.99-2.18,2.2l0.11,28.9c0,1.18,0.97,2.14,2.15,2.13l28.87-0.11
				C63.08,102.8,64.07,101.8,64.07,100.57z"/>
			<path class="md4" d="M40.7,64.25c-0.31,1.44-0.08,2.82,0.51,3.97c0.34,0.66-0.14,1.44-0.88,1.45l-8.3,0.03
				c-1.21,0-2.19,0.99-2.18,2.2l0.11,28.9c0,1.18,0.97,2.14,2.15,2.13l28.87-0.11c1.23,0,2.22-1,2.21-2.23l-0.03-8.05
				c0-1.04-1.12-1.7-2.03-1.19c-0.88,0.49-1.9,0.76-2.98,0.74c-3.05-0.06-5.57-2.49-5.74-5.54c-0.19-3.39,2.49-6.2,5.84-6.21
				c1.26,0,2.43,0.39,3.39,1.06c0.62,0.44,1.48-0.01,1.48-0.77l-0.03-8.86c0-1.21-0.99-2.19-2.2-2.18l-8.25,0.03
				c-0.76,0-1.26-0.8-0.92-1.48c0.39-0.79,0.61-1.68,0.61-2.62c-0.01-3.71-3.45-6.6-7.31-5.68C43.06,60.29,41.11,62.3,40.7,64.25z"
				/>
		</g>
		<g>
			<path class="md1" d="M96.3,69.63h-8.07c-1.04,0-1.71,1.12-1.2,2.03c0.49,0.88-1.23,8.53-4.84,8.73c-3.4,0.19-6.21-2.52-6.21-5.88
				c0-1.26,0.4-2.43,1.08-3.39c0.44-0.62,0-1.48-0.77-1.48H67.4c-1.21,0-2.2,0.98-2.2,2.2c0,0-0.8,9.53-1.49,9.19
				c-0.71-0.35-1.49-0.57-2.32-0.61l0,0h-0.01c-0.1,0-0.2-0.01-0.3-0.01c-0.1,0-1.56-0.02-1.56-0.02L59.3,92.15l1.27,0.01
				c1.21-0.04,2.25-0.15,3.19-0.62c0.66-0.34,1.45,0.15,1.45,0.89v8.32c0,1.21,0.98,2.2,2.2,2.2h28.98c1.19,0,2.15-0.96,2.15-2.15
				V71.86C98.53,70.63,97.53,69.63,96.3,69.63z"/>
			<path class="md2" d="M58.22,92.02c1.44,0.31,2.82,0.09,3.98-0.5c0.66-0.34,1.45,0.15,1.45,0.89v8.32c0,1.21,0.98,2.2,2.2,2.2
				h28.98c1.19,0,2.15-0.96,2.15-2.15V71.84c0-1.23-1-2.23-2.23-2.23h-8.07c-1.04,0-1.71,1.12-1.2,2.03
				c0.49,0.88,0.76,1.9,0.73,2.99c-0.07,3.06-2.52,5.58-5.57,5.74c-3.4,0.18-6.21-2.52-6.21-5.88c0-1.26,0.4-2.43,1.08-3.39
				c0.44-0.62,0-1.48-0.77-1.48h-8.88c-1.21,0-2.2,0.98-2.2,2.2v8.27c0,0.77-0.8,1.26-1.49,0.92c-0.79-0.4-1.68-0.62-2.63-0.62
				c-3.72,0-6.63,3.44-5.73,7.31C54.25,89.63,56.26,91.6,58.22,92.02z"/>
		</g>
	</g>
</g>
</svg>
