<?xml version="1.0" encoding="utf-8"?>
<!-- Generator: Adobe Illustrator 24.3.0, SVG Export Plug-In . SVG Version: 6.00 Build 0)  -->
<svg version="1.1" id="Capa_1" xmlns="http://www.w3.org/2000/svg" xmlns:xlink="http://www.w3.org/1999/xlink" x="0px" y="0px"
	 viewBox="0 0 127.56 127.56" style="enable-background:new 0 0 127.56 127.56;" xml:space="preserve">
<style type="text/css">
	.st0{fill:#FFFFFF;}
	.st1{fill:#7B6A58;}
	.st2{fill:#A48A7B;}
	.st3{fill:#CBBBA0;}
</style>
<g>
	<circle class="st0" cx="63.78" cy="63.78" r="61.12"/>
	<g>
		<path class="st1" d="M47.83,29.78v53.71h53.71V29.78H47.83z M74.68,77.42c-11.48,0-20.78-9.3-20.78-20.78
			c0-11.48,9.3-20.78,20.78-20.78s20.78,9.3,20.78,20.78C95.47,68.12,86.16,77.42,74.68,77.42z"/>
		<polygon class="st2" points="79.73,44.07 26.02,44.07 47.83,29.78 101.54,29.78 		"/>
		<polygon class="st2" points="79.73,97.77 26.02,97.77 47.83,83.49 101.54,83.49 		"/>
		<path class="st3" d="M26.02,44.07v53.71h53.71V44.07H26.02z M52.88,91.7c-11.48,0-20.78-9.3-20.78-20.78
			c0-11.48,9.3-20.78,20.78-20.78s20.78,9.3,20.78,20.78C73.66,82.4,64.35,91.7,52.88,91.7z"/>
	</g>
</g>
</svg>
