<?xml version="1.0" encoding="utf-8"?>
<!-- Generator: Adobe Illustrator 24.3.0, SVG Export Plug-In . SVG Version: 6.00 Build 0)  -->
<svg version="1.1" id="Capa_1" xmlns="http://www.w3.org/2000/svg" xmlns:xlink="http://www.w3.org/1999/xlink" x="0px" y="0px"
	 viewBox="0 0 127.56 127.56" style="enable-background:new 0 0 127.56 127.56;" xml:space="preserve">
<style type="text/css">
	.pc0{fill:#FFFFFF;}
	.pc1{fill:#8E8D8D;}
	.pc2{fill:#312783;}
	.pc3{fill:#2AA9E0;}
	.pc4{fill:#111111;}
	.pc5{fill:#C5C5C4;}
</style>
<g>
	<circle class="pc0" cx="63.78" cy="63.78" r="61.12"/>
	<g>
		<path class="pc1" d="M94.93,98.87H33.55c-3.38,0-6.15-2.77-6.15-6.15V41.3c0-5.48,4.48-9.96,9.96-9.96h53.75
			c5.48,0,9.96,4.48,9.96,9.96v51.42C101.08,96.11,98.31,98.87,94.93,98.87z"/>
		<path class="pc2" d="M94.93,97.03H33.55c-3.38,0-6.15-2.77-6.15-6.15V40.51c0-5.48,4.48-9.96,9.96-9.96h53.75
			c5.48,0,9.96,4.48,9.96,9.96v50.38C101.08,94.27,98.31,97.03,94.93,97.03z"/>
		<path class="pc3" d="M101.08,47.82H27.4v-7.32c0-5.48,4.48-9.96,9.96-9.96h53.75c5.48,0,9.96,4.48,9.96,9.96V47.82z"/>
		<path class="pc4" d="M39.92,40.72c0,0.85-0.66,1.53-1.47,1.53c-0.81,0-1.47-0.69-1.47-1.53s0.66-1.53,1.47-1.53
			C39.26,39.18,39.92,39.87,39.92,40.72z"/>
		<path class="pc4" d="M91.45,40.72c0,0.85-0.66,1.53-1.47,1.53c-0.81,0-1.47-0.69-1.47-1.53s0.66-1.53,1.47-1.53
			C90.79,39.18,91.45,39.87,91.45,40.72z"/>
		<rect x="35.01" y="57.49" class="st5" width="9.83" height="6.37"/>
		<rect x="35.01" y="68.84" class="st5" width="9.83" height="6.37"/>
		<rect x="50.65" y="68.84" class="st3" width="9.83" height="6.37"/>
		<rect x="66.29" y="68.84" class="st5" width="9.83" height="6.37"/>
		<rect x="81.62" y="68.84" class="st5" width="9.83" height="6.37"/>
		<rect x="35.01" y="80.18" class="st5" width="9.83" height="6.37"/>
		<rect x="50.65" y="80.18" class="st5" width="9.83" height="6.37"/>
		<rect x="66.29" y="80.18" class="st5" width="9.83" height="6.37"/>
		<rect x="50.65" y="57.49" class="st5" width="9.83" height="6.37"/>
		<rect x="66.29" y="57.49" class="st5" width="9.83" height="6.37"/>
		<rect x="81.92" y="57.49" class="st5" width="9.83" height="6.37"/>
	</g>
</g>
</svg>
