<?xml version="1.0" encoding="utf-8"?>
<!-- Generator: Adobe Illustrator 24.3.0, SVG Export Plug-In . SVG Version: 6.00 Build 0)  -->
<svg version="1.1" xmlns="http://www.w3.org/2000/svg" xmlns:xlink="http://www.w3.org/1999/xlink" x="0px" y="0px"
	 viewBox="0 0 500 500" style="enable-background:new 0 0 500 500;" xml:space="preserve">
<style type="text/css">
	.a0{fill:#FFFFFF;}
	.a1{fill:#00768E;}
	.a2{fill:#015560;}
	.a3{fill:#E29E60;}
	.a4{fill:#FFB973;}
	.a5{fill:#D7513A;}
</style>
<g id="background">
</g>
<g id="objects">
	<g>
		<circle class="a0" cx="250" cy="250" r="224.49"/>
		<g>
			<path class="a1" d="M346.17,167.47c8.52,0,15.42,6.9,15.42,15.42v140.68c0,8.51-6.9,15.42-15.42,15.42H126.93
				c-8.52,0-15.42-6.9-15.42-15.42V182.88c0-8.52,6.9-15.42,15.42-15.42H346.17z"/>
			<rect x="111.52" y="194.89" width="250.08" height="37.11"/>
			<rect x="136.96" y="269.78" class="a0" width="117.63" height="16.31"/>
			<rect x="270.13" y="254.01" class="a2" width="70.67" height="66.54"/>
		</g>
		<g>
			<path class="a3" d="M364.93,272.54c0,0,8.92,29,19,25.98c10.08-3.02,11.25-8.46,11.25-8.46s6.22,8.66,17.07,2.42
				c0,0,15.76,7.47,20.09-6.84C436.67,271.33,377.73,256.83,364.93,272.54z"/>
			<path class="a4" d="M468.72,200.03c-21.52-5.34-76.51-17.35-107.12-9.05v50.8c0,0-35.53,2.55-37.87,17.37
				c-2.34,14.82,7.46,17.54,54,11.72c0,0,26.69,11.83,62.57,6.76c15.28-2.16,25.99-6.03,33.5-10.09c0.41-5.59,0.7-11.21,0.7-16.9
				C474.49,233.23,472.45,216.31,468.72,200.03z"/>
		</g>
		<g>
			<path class="a5" d="M290.97,41.84c-30.06,0-54.42,24.36-54.42,54.42c0,15.16,6.21,28.87,16.22,38.73l-2.89,23.28l15.07-14.21
				c7.73,4.22,16.6,6.62,26.03,6.62c30.06,0,54.42-24.36,54.42-54.42S321.03,41.84,290.97,41.84z"/>
		</g>
		<g>
			<path class="a0" d="M271.78,127.36l4.57-8.09c-5.09-3.09-9.14-6.73-12.17-10.93l6.81-12.05l8.33,3.96l-2.65,4.69
				c-0.43,0.75-0.64,1.37-0.62,1.84c0.01,0.47,0.39,1.13,1.12,1.97c0.74,0.84,1.94,1.74,3.61,2.67l8.54-15.12
				c-3.53-3.56-5.83-6.6-6.9-9.12c-1.06-2.52-1.48-4.83-1.27-6.91c0.22-2.08,0.97-4.26,2.25-6.52c2.25-3.99,5.4-6.56,9.44-7.74
				c4.04-1.17,8.38-0.83,13.03,1.02l4.21-7.44l6.07,3.43l-4.11,7.28c4.37,2.83,7.97,6.21,10.8,10.15l-6.44,11.4l-8.2-4l2.47-4.36
				c0.43-0.76,0.63-1.37,0.62-1.84c-0.02-0.47-0.4-1.09-1.13-1.86c-0.74-0.77-1.52-1.43-2.35-1.97l-8.04,14.23l0.08,0.04
				c3.39,3.56,5.8,6.98,7.21,10.26c1.85,4.03,1.51,8.29-1.02,12.76c-2.53,4.47-5.87,7.28-10.04,8.41
				c-4.16,1.13-8.63,0.77-13.42-1.08l-4.71,8.33L271.78,127.36z M295.56,110.18c1.52-2.7,1.1-5.53-1.27-8.5l-7.13,12.61
				C290.78,115.06,293.58,113.69,295.56,110.18z M301.43,74.88c-3.35-0.61-5.8,0.45-7.36,3.2c-1.55,2.75-1.29,5.56,0.78,8.44
				L301.43,74.88z"/>
		</g>
	</g>
</g>
<g id="designed_by_freepik">
</g>
</svg>
