<?xml version="1.0" encoding="utf-8"?>
<!-- Generator: Adobe Illustrator 24.3.0, SVG Export Plug-In . SVG Version: 6.00 Build 0)  -->
<svg version="1.1" xmlns="http://www.w3.org/2000/svg" xmlns:xlink="http://www.w3.org/1999/xlink" x="0px" y="0px"
	 viewBox="0 0 500 500" style="enable-background:new 0 0 500 500;" xml:space="preserve">
<style type="text/css">
	.st0{fill:#FFFFFF;}
	.st1{fill:#727272;}
	.st2{opacity:0.15;}
	.st3{fill:#A3A3A3;}
	.st4{fill:#D7513A;}
	.st5{opacity:0.2;}
	.st6{fill:#FFD578;}
	.st7{opacity:0.1;}
	.st8{fill:none;stroke:#505655;stroke-width:3;stroke-miterlimit:10;}
	.st9{opacity:0.5;fill:#262B2A;}
</style>
<g id="background">
</g>
<g id="objects">
	<g>
		<circle class="st0" cx="250" cy="250" r="224.49"/>
		<g>
			<polygon class="st1" points="381.56,311.39 372.68,347.3 345.8,347.3 359.35,319.1 			"/>
			<ellipse class="st2" cx="274.6" cy="424.64" rx="92.4" ry="9.94"/>
			<path class="st3" d="M388.02,293.93c-44.25,15-73.49,25.91-117.74,40.91c-20.11-87.06-40.23-174.11-60.34-261.17
				c-1.39-6.02-8.12-9.4-13.87-7.87c-22.65,6.03-45.31,12.07-67.96,18.1c-14.04,3.74-8.07,25.49,5.99,21.74
				c18.87-5.03,37.74-10.05,56.61-15.08c20.17,87.31,40.34,174.62,60.52,261.94c1.32,5.73,8.22,9.79,13.87,7.87
				c47.97-16.26,80.94-28.43,128.91-44.69C407.7,311.03,401.83,289.25,388.02,293.93z"/>
			<path class="st4" d="M169.9,72.76l-41.79,11.13c-14.04,3.74-8.07,25.49,5.99,21.74c13.09-3.49,26.18-6.97,39.27-10.46
				C172.3,87.68,171.18,80.21,169.9,72.76z"/>
			<path class="st5" d="M273.35,349.01c-5.65,1.91-12.54-2.14-13.87-7.87c-20.17-87.31-40.34-174.62-60.52-261.94
				c-18.87,5.03-37.74,10.05-56.61,15.08c-8.05,2.14-13.43-4.07-13.94-10.47c-0.1,0.03-0.2,0.05-0.31,0.08
				c-14.04,3.74-8.07,25.49,5.99,21.74c18.87-5.03,37.74-10.05,56.61-15.08c20.17,87.31,40.34,174.62,60.52,261.94
				c1.32,5.73,8.22,9.79,13.87,7.87c47.97-16.26,80.94-28.43,128.91-44.69c5.55-1.88,7.84-6.57,7.74-11.17
				C353.94,320.69,321.15,332.81,273.35,349.01z"/>
			<g>
				<path class="st6" d="M240.64,360.74c1.33,6.7,7.29,11.17,13.31,9.98l109.96-21.77c6.02-1.19,9.83-7.59,8.51-14.3l-26.84-135.62
					c-1.33-6.7-7.29-11.17-13.31-9.98L222.3,210.83c-6.02,1.19-9.83,7.59-8.51,14.3L240.64,360.74z"/>
				<path class="st7" d="M222.3,210.83l55.2-10.93l31.65,159.9l-55.2,10.93c-6.02,1.19-11.98-3.28-13.31-9.98L213.8,225.12
					C212.47,218.42,216.28,212.02,222.3,210.83z"/>
			</g>
			<path class="st1" d="M318.62,364.25h-19.17c-1.35,3.36-3.32,6.55-5.89,9.37c-4.4,4.83-9.49,8.71-14.98,11.78
				c0,0.09-0.02,0.18-0.02,0.28c0,14.55,11.79,26.28,26.28,26.28c14.56,0,26.3-11.79,26.3-26.28c0-1.74-0.24-3.41-0.57-5.05
				C324.31,377.03,320.33,370.97,318.62,364.25z"/>
			<circle class="st8" cx="304.4" cy="385.42" r="21.17"/>
			<path class="st9" d="M325.15,402.38c0.52-0.64,1.02-1.3,1.49-1.99c0.48-0.71,0.92-1.44,1.33-2.19c2.07-3.8,3.24-8.15,3.24-12.77
				c0-14.78-12.03-26.81-26.81-26.81c-14.78,0-26.81,12.03-26.81,26.81c0,14.78,12.03,26.81,26.81,26.81
				c8.35,0,15.82-3.84,20.74-9.84C325.14,402.38,325.14,402.38,325.15,402.38z"/>
			<path class="st3" d="M381.13,324.69c-44.25,15-88.5,30-132.75,45c-20.11-87.06-40.23-174.11-60.34-261.17
				c-1.39-6.02-8.12-9.4-13.87-7.87c-22.65,6.03-45.31,12.07-67.96,18.1c-14.04,3.74-8.07,25.49,5.99,21.74
				c18.87-5.03,37.74-10.05,56.61-15.08c20.17,87.31,40.34,174.62,60.52,261.94c1.32,5.73,8.22,9.79,13.87,7.87
				c47.97-16.26,95.95-32.52,143.92-48.79C400.81,341.79,394.94,320.01,381.13,324.69z"/>
			<path class="st4" d="M148,107.62l-41.79,11.13c-14.04,3.74-8.07,25.49,5.99,21.74c13.09-3.49,26.18-6.97,39.27-10.46
				C150.4,122.54,149.28,115.06,148,107.62z"/>
			<path class="st5" d="M251.45,383.87c-5.65,1.91-12.54-2.14-13.87-7.87c-20.17-87.31-40.34-174.62-60.52-261.94
				c-18.87,5.03-37.74,10.05-56.61,15.08c-8.05,2.14-13.43-4.07-13.94-10.47c-0.1,0.03-0.2,0.05-0.31,0.08
				c-14.04,3.74-8.07,25.49,5.99,21.74c18.87-5.03,37.74-10.05,56.61-15.08c20.17,87.31,40.34,174.62,60.52,261.94
				c1.32,5.73,8.22,9.79,13.87,7.87c47.97-16.26,95.95-32.52,143.92-48.79c5.54-1.88,7.84-6.57,7.74-11.17
				C347.06,351.46,299.25,367.66,251.45,383.87z"/>
			<path class="st1" d="M300.09,384.35h-19.17c-1.35,3.36-3.32,6.55-5.89,9.37c-4.4,4.84-9.49,8.71-14.98,11.78
				c0,0.09-0.02,0.18-0.02,0.28c0,14.55,11.79,26.28,26.28,26.28c14.56,0,26.3-11.79,26.3-26.28c0-1.74-0.24-3.41-0.57-5.05
				C305.78,397.12,301.8,391.07,300.09,384.35z"/>
			<path class="st8" d="M264.7,405.52c0,11.69,9.48,21.17,21.17,21.17c11.69,0,21.17-9.48,21.17-21.17
				c0-11.69-9.48-21.17-21.17-21.17C274.18,384.35,264.7,393.83,264.7,405.52z"/>
		</g>
	</g>
</g>
<g id="designed_by_freepik">
</g>
</svg>
